<svg width="543" height="363" viewBox="0 0 543 363" fill="none" xmlns="http://www.w3.org/2000/svg">
<path d="M483.1 131.079C468.23 150.775 443.23 162.476 417.11 162.476C374.67 162.476 336.93 130.079 336.93 87.6847C336.93 52.7137 356.06 27.6337 382.39 16.0887C389.63 12.9287 397.28 10.7977 405.11 9.75772C409.09 9.22172 413.1 8.95371 417.11 8.95471C427.37 8.95471 437.53 10.9777 447.01 14.9077C475.1 26.5157 495.54 53.8697 496.96 85.7157C497.75 103.356 492.4 118.777 483.1 131.079Z" fill="#657285"/>
<path d="M372.91 92.4537C372.91 92.4537 375.91 99.3827 372.91 103.189C369.92 106.996 369.65 114.196 375.64 118.951C381.62 123.705 384.2 124.115 382.84 128.87C381.48 133.625 380.06 139.435 382.3 141.88C384.54 144.326 385.46 150.136 390.46 150.563C395.46 150.991 390.06 146.587 393.32 142.509C396.59 138.432 409.23 137.619 408.01 129.568C406.79 121.517 418.42 120.802 420.05 115.502C421.69 110.202 414.75 106.944 408.93 107.35C403.1 107.757 406.68 98.6877 400.36 97.3607C394.03 96.0347 391.07 90.9427 387.4 91.5537C383.73 92.1647 379.65 86.9657 375.46 88.5987C371.28 90.2307 372.91 92.4537 372.91 92.4537Z" fill="#B8C1C9"/>
<path d="M362.3 37.0117C362.3 37.0117 357.95 40.4077 356.74 45.8437C355.53 51.2787 349.39 54.6757 348.44 62.1677C347.49 69.6587 351.81 69.8427 350.28 73.9207C348.75 77.9977 350.65 80.0367 355.31 82.0757C359.97 84.1147 360.38 87.2467 363.13 88.2787C365.89 89.3107 365.17 92.0607 366.09 92.3667C367.01 92.6727 366.6 90.2827 367.56 87.1567C368.51 84.0307 369.32 82.7387 365.86 82.8747C362.39 83.0097 363.47 80.2247 364.83 78.4597C366.19 76.6957 362.93 76.4217 361.84 76.6927C360.75 76.9627 361.03 81.9927 358.78 79.6127C356.53 77.2337 355.45 74.5177 357.28 71.3917C359.12 68.2667 363.06 70.8507 365.86 67.1127C368.65 63.3757 372.59 64.8697 372.81 67.8597C373.03 70.8507 378.59 70.9167 379.54 66.9777C380.5 63.0387 380.09 56.1727 385.8 55.0547C391.52 53.9357 402.75 48.2257 395.6 45.8817C388.46 43.5377 391.31 38.6437 387.64 38.9357C383.97 39.2267 385.4 44.7457 381.31 43.1027C377.23 41.4607 374.27 37.0907 379.99 35.8687C385.71 34.6457 388.05 28.3287 383.66 28.7347C379.27 29.1407 378.56 24.8617 375.91 25.3727C373.25 25.8837 370.5 32.3187 367.75 33.9307C364.99 35.5417 362.3 37.0117 362.3 37.0117Z" fill="#B8C1C9"/>
<path d="M399.1 24.4417C399.1 24.4417 404.75 22.8787 407.2 24.4417C409.65 26.0047 413.46 30.4197 410.26 32.0517C407.06 33.6837 403.72 34.2257 405.29 37.2817C406.85 40.3387 400.8 41.3597 399.1 37.2817C397.4 33.2047 397.4 31.7247 395.63 29.8077C393.85 27.8907 394.61 23.8307 399.1 24.4417Z" fill="#B8C1C9"/>
<path d="M483.1 131.079C459.75 124.959 479.12 115.356 470.93 104.304C466.27 98.0107 474.57 90.4317 469.26 89.3897C466.18 88.7857 459.09 96.6457 455.01 89.3897C450.92 82.1347 443.62 82.0967 441.49 86.4867C439.37 90.8767 430.41 93.9187 424.53 90.7347C418.66 87.5497 422.06 83.3017 416.97 79.9677C411.89 76.6327 411.51 71.3257 416.97 67.2317C422.44 63.1367 419.93 57.2217 428.13 59.0417C436.33 60.8617 434.74 41.9817 434.74 41.9817C434.61 38.6787 437.81 38.1127 435.99 35.0347C434.17 31.9577 429.04 34.4657 426.31 27.6407C423.58 20.8157 430.64 16.7207 436.33 17.3877C437.99 17.5827 442.02 16.4227 447.02 14.9047C475.12 26.5117 495.56 53.8667 496.98 85.7117C497.75 103.356 492.4 118.777 483.1 131.079Z" fill="#B8C1C9"/>
<path d="M374.58 76.8587C374.58 76.8587 379.29 74.2367 381.79 76.3207C384.3 78.4047 385.38 79.7937 389.07 79.0047C392.77 78.2167 395.28 79.6997 392.9 80.7907C390.52 81.8807 384.9 83.7707 382.34 81.5057C379.77 79.2417 372.37 77.7727 374.58 76.8587Z" fill="#B8C1C9"/>
<path d="M393.55 85.3227C393.55 85.3227 396.89 85.9167 397.67 84.5447C398.44 83.1727 396.89 84.4857 395.61 83.7707C394.33 83.0547 391.88 83.7707 393.55 85.3227Z" fill="#B8C1C9"/>
<path d="M273.15 362.215C418.47 362.215 536.28 350.37 536.28 335.76C536.28 321.149 418.47 309.305 273.15 309.305C127.828 309.305 10.0198 321.149 10.0198 335.76C10.0198 350.37 127.828 362.215 273.15 362.215Z" fill="#EAEAEA"/>
<g opacity="0.6">
<path d="M404.2 212.542C434.3 181.808 476.54 145.51 494.92 161.782C517.07 181.402 463.28 206.085 422.83 231.363C408.32 240.432 385.01 232.131 404.2 212.542Z" fill="#D5D6DA"/>
</g>
<path d="M367 225.32C367 225.32 520.65 165.929 540.93 213.4C561.21 260.871 426.02 227.553 382.03 246.43L367 225.32Z" fill="#B8C1C9"/>
<path d="M375.31 237.188C405.44 223.601 442.61 219.301 468.49 218.085C496.54 216.769 517.71 218.697 517.92 218.714L518.04 217.401C517.84 217.38 496.57 215.446 468.43 216.765C442.44 217.985 405.09 222.322 374.76 235.982L375.31 237.188Z" fill="white"/>
<path d="M472.58 323.114C453.3 314.494 437.55 341.682 422.02 323.093C408.9 307.363 408.64 304.894 399.69 305.432C396.62 305.631 393.6 306.265 390.71 307.314C387.24 308.551 381.38 309.815 375.88 307.092C342.29 290.459 333.95 216.64 382.82 215.213C386.35 215.109 390.12 216.831 394.13 218.919C415.97 230.252 415.47 243.721 447.88 231.988C480.29 220.256 476.9 268.717 490.9 277.202C504.89 285.687 519.38 290.268 519.38 311.68C519.38 333.092 491.86 331.748 472.58 323.114Z" fill="#D5D6DA"/>
<g opacity="0.5">
<path d="M368.77 254.147L368.82 252.758C369.43 252.782 431.06 256.009 518.83 317.359L518.03 318.495C430.6 257.377 369.37 254.171 368.77 254.147Z" fill="white"/>
<path d="M446.94 260.291C443.09 241.703 447.06 232.11 447.24 231.71L448.51 232.256C448.48 232.349 444.55 241.897 448.3 260.01L446.94 260.291Z" fill="white"/>
<path d="M440.03 273.802C440.98 265.814 447.25 257.936 458.17 250.99C463.31 247.752 468.77 245.026 474.44 242.852L474.91 244.158C474.6 244.269 443.59 255.62 441.41 273.969L440.03 273.802Z" fill="white"/>
<path d="M464.17 288.532C463.65 286.406 463.47 285.131 463.45 285.058L464.84 284.867C464.88 285.135 468.91 311.958 492.2 327.994L491.41 329.133C472.63 316.223 466.11 296.461 464.17 288.532Z" fill="white"/>
<path d="M456.32 322.614C455.39 313 458.17 306.123 460.66 302.046C463.38 297.607 466.29 295.474 466.41 295.384L467.22 296.52C467.11 296.6 455.98 304.894 457.69 322.489L456.32 322.614Z" fill="white"/>
</g>
<path d="M108.535 13.2517C108.535 13.2517 113.402 3.90171 125.708 5.07171C138.013 6.24271 136.549 15.6167 142.397 14.7377C148.246 13.8587 156.462 14.7377 158.221 20.5937C159.981 26.4497 167.891 23.2297 168.186 28.2067C168.482 33.1837 159.101 36.7027 148.256 32.3087C137.411 27.9147 132.14 35.7197 116.9 34.3057C101.66 32.8917 99.7718 31.1347 90.7528 32.0137C81.7338 32.8917 81.9488 26.7237 86.0518 22.6357C90.1548 18.5477 106.775 18.9127 108.535 13.2517Z" fill="#EAEAEA"/>
<g opacity="0.6">
<path d="M170.241 44.0197C170.241 44.0197 172.773 39.1577 179.177 39.7657C185.582 40.3737 184.821 45.2527 187.87 44.7947C190.919 44.3357 195.172 44.7947 196.103 47.8437C197.035 50.8937 201.138 49.2337 201.291 51.8067C201.444 54.3807 196.562 56.2247 190.919 53.9397C185.276 51.6537 182.529 55.7177 174.598 54.9817C166.667 54.2447 165.686 53.3317 160.993 53.7867C156.299 54.2417 156.406 51.0327 158.559 48.8997C160.711 46.7677 169.327 46.9757 170.241 44.0197Z" fill="#EAEAEA"/>
</g>
<path d="M96.0798 75.4077C93.2668 78.6897 91.3828 78.7727 90.0958 77.6717C88.8098 76.5707 88.6008 74.6987 91.4138 71.4197C96.5428 65.4397 101.355 64.5427 101.355 64.5427C101.355 64.5427 101.285 69.3357 96.0798 75.4077Z" fill="#D5D6DA"/>
<path d="M105.04 101.956C103.437 105.975 101.685 106.659 100.11 106.034C98.5348 105.409 97.7318 103.703 99.3308 99.6877C102.245 92.3697 106.508 89.9627 106.508 89.9627C106.508 89.9627 107.996 94.5307 105.04 101.956Z" fill="#D5D6DA"/>
<path d="M127.168 171.458L126.375 171.656C126.344 171.534 123.19 159.229 113.117 143.086C103.823 128.189 86.5698 106.881 57.1368 89.9457L57.5477 89.2507C87.1297 106.27 104.487 127.696 113.82 142.679C123.976 158.93 127.168 171.333 127.168 171.458Z" fill="#D5D6DA"/>
<path d="M88.8577 112.629L88.0618 112.435C95.0718 83.5547 76.0248 57.9717 75.8298 57.7147L76.4838 57.2217C76.6778 57.4787 95.9617 83.3637 88.8577 112.629Z" fill="#D5D6DA"/>
<path d="M72.8668 104.106C67.9458 105.73 62.6778 106.005 57.6138 104.901L57.8218 104.113C57.9158 104.137 67.2728 106.544 76.0488 101.828L76.4377 102.547C75.2917 103.162 74.0978 103.684 72.8668 104.106Z" fill="#D5D6DA"/>
<path d="M119.866 154.467C103.333 158.135 87.7658 154.814 73.6008 144.624C73.2568 144.36 72.8977 144.115 72.5267 143.891C72.5577 143.898 72.5898 143.898 72.6198 143.891V143.075C72.8638 143.075 73.0658 143.211 74.0878 143.95C88.0578 154.023 103.403 157.273 119.696 153.675L119.866 154.467Z" fill="#D5D6DA"/>
<path d="M94.4838 153.884L93.6667 153.939C92.9187 142.856 81.0138 130.28 80.8918 130.155L81.4868 129.589C83.7398 132.038 85.8107 134.649 87.6827 137.4C90.5757 141.616 94.0948 147.924 94.4838 153.884Z" fill="#D5D6DA"/>
<path d="M55.1617 85.8267C60.5307 88.1087 61.5908 90.0537 60.9268 91.6127C60.2628 93.1727 58.1457 93.7557 52.7557 91.4737C42.9717 87.3067 39.4457 82.4817 39.4457 82.4817C39.4457 82.4817 45.2317 81.6107 55.1617 85.8267Z" fill="#D5D6DA"/>
<path d="M58.8268 101.675C64.6368 102.234 66.2328 103.759 66.0698 105.454C65.9058 107.149 64.0498 108.344 58.2388 107.784C47.6548 106.767 42.8328 103.221 42.8328 103.221C42.8328 103.221 48.0868 100.633 58.8268 101.675Z" fill="#D5D6DA"/>
<path d="M82.3458 126.845C85.4748 129.832 85.4507 131.708 84.2787 132.941C83.1067 134.173 81.2257 134.267 78.0967 131.28C72.4007 125.834 71.7687 120.986 71.7687 120.986C71.7687 120.986 76.5628 121.319 82.3458 126.845Z" fill="#D5D6DA"/>
<path d="M76.5387 89.0397C78.8437 92.6967 78.3637 94.5167 76.9277 95.4197C75.4917 96.3227 73.6457 95.9687 71.3367 92.2937C67.1367 85.6287 67.7067 80.7727 67.7067 80.7727C67.7067 80.7727 72.2757 82.2767 76.5387 89.0397Z" fill="#D5D6DA"/>
<path d="M103.326 146.26C104.512 150.428 103.542 152.033 101.907 152.512C100.273 152.991 98.6007 152.116 97.4187 147.955C95.2627 140.38 97.1747 135.879 97.1747 135.879C97.1747 135.879 101.139 138.574 103.326 146.26Z" fill="#D5D6DA"/>
<path d="M76.8588 142.735C80.5548 144.986 80.9407 146.826 80.0577 148.275C79.1747 149.723 77.3598 150.227 73.6638 147.976C66.9288 143.874 65.2737 139.293 65.2737 139.293C65.2737 139.293 70.0298 138.578 76.8588 142.735Z" fill="#D5D6DA"/>
<path d="M77.0358 53.5257C80.1658 58.4437 79.9427 60.6457 78.5137 61.5557C77.0847 62.4657 74.9878 61.7397 71.8558 56.8217C66.1428 47.8617 65.9717 41.8877 65.9717 41.8877C65.9717 41.8877 71.2438 44.4367 77.0358 53.5257Z" fill="#D5D6DA"/>
<path d="M190.102 278.345C190.102 278.345 106.702 141.057 70.2598 165.06C33.8168 189.063 146.546 244.686 169.556 285.42L190.102 278.345Z" fill="#D5D6DA"/>
<path d="M151.292 253.855C151.292 253.855 55.3047 152.154 22.3707 181.103C-10.5643 210.052 105.263 233.978 132.036 264.532L151.292 253.855Z" fill="#EAEAEA"/>
<path d="M140.572 259.923C122.453 238.487 95.5447 221.597 76.1597 211.201C55.1447 199.935 38.2117 193.669 38.0417 193.606L38.4308 192.564C38.6008 192.627 55.6067 198.92 76.6777 210.226C96.1497 220.666 123.187 237.636 141.417 259.197L140.572 259.923Z" fill="white"/>
<path d="M36.5847 293.338C58.1867 297.534 55.3007 330.126 79.6787 323.576C104.056 317.025 101.994 315.487 114.004 325.872C114.004 325.872 118.813 336.051 128.608 337.555C167.202 343.484 218.583 285.565 177.801 255.109C174.855 252.911 170.62 252.129 165.937 251.497C140.527 248.083 132.881 259.864 112.3 230.474C91.7197 201.084 65.5378 244.398 48.5247 243.252C31.5117 242.106 16.4317 237.347 3.58072 255.592C-9.27028 273.837 14.9777 289.16 36.5847 293.338Z" fill="#B8C1C9"/>
<path d="M166.41 296.697L167.192 295.481C166.657 295.134 112.199 261 0.624756 260.75V262.198C111.779 262.445 165.874 296.353 166.41 296.697Z" fill="white"/>
<path d="M96.1108 255.151C110.537 241.606 112.905 231.061 112.999 230.62L111.58 230.318C111.56 230.422 109.178 240.907 95.1168 254.095L96.1108 255.151Z" fill="white"/>
<path d="M93.8928 270.798C97.8708 263.434 97.2588 252.959 92.1198 240.505C89.6788 234.666 86.6677 229.082 83.1307 223.833L81.9487 224.663C82.1467 224.945 101.768 253.182 92.6198 270.113L93.8928 270.798Z" fill="white"/>
<path d="M64.4908 268.908C66.2088 267.408 67.1368 266.435 67.1788 266.39L66.1357 265.404C65.9407 265.609 46.4177 286.041 16.9567 285.781V287.226C40.6697 287.437 58.0828 274.5 64.4908 268.908Z" fill="white"/>
<path d="M50.7397 302.64C57.2967 294.999 59.0568 287.486 59.3768 282.519C59.7238 277.112 58.5177 273.548 58.4688 273.399L57.0988 273.871C57.1438 274.007 61.6507 287.729 49.6407 301.698L50.7397 302.64Z" fill="white"/>
<path d="M325.38 296.937V252.55H235.749V296.937C235.749 308.471 228.064 317.821 218.586 317.821H214.973V323.552H346.16V317.821H342.55C333.07 317.821 325.38 308.471 325.38 296.937Z" fill="#00A3FE"/>
<path d="M345.42 323.552H215.707C214.946 323.552 214.217 323.25 213.679 322.712C213.141 322.175 212.838 321.446 212.838 320.686C212.838 319.926 213.141 319.197 213.679 318.66C214.217 318.123 214.946 317.821 215.707 317.821H345.42C346.19 317.821 346.91 318.123 347.45 318.66C347.99 319.197 348.29 319.926 348.29 320.686C348.29 321.446 347.99 322.175 347.45 322.712C346.91 323.25 346.19 323.552 345.42 323.552Z" fill="#016EB9"/>
<path d="M433.24 279.8L130.141 276.327C127.023 276.29 124.045 275.027 121.853 272.812C119.661 270.597 118.431 267.608 118.43 264.494V79.6997C118.431 76.5927 119.654 73.6117 121.837 71.3977C124.019 69.1847 126.986 67.9177 130.096 67.8707L429.29 63.2927C432.42 63.2447 435.44 64.4377 437.7 66.6107C439.95 68.7827 441.25 71.7587 441.31 74.8857L445.22 267.727C445.25 269.312 444.97 270.888 444.38 272.36C443.79 273.832 442.91 275.171 441.79 276.297C440.67 277.423 439.34 278.314 437.87 278.915C436.41 279.517 434.83 279.818 433.24 279.8Z" fill="#016EB9"/>
<path d="M422.98 81.9087H136.528C133.02 81.9087 130.176 84.7497 130.176 88.2547V236.806C130.176 240.31 133.02 243.151 136.528 243.151H422.98C426.48 243.151 429.33 240.31 429.33 236.806V88.2547C429.33 84.7497 426.48 81.9087 422.98 81.9087Z" fill="#EAEAEA"/>
<path d="M311 31.5167L314.76 31.4157C315.11 31.4067 315.44 31.3307 315.76 31.1917C316.07 31.0517 316.35 30.8527 316.59 30.6037C316.82 30.3557 317.01 30.0637 317.13 29.7437C317.25 29.4247 317.31 29.0837 317.3 28.7417L317.18 24.1637C317.16 23.4737 316.87 22.8187 316.37 22.3427C315.86 21.8677 315.19 21.6107 314.5 21.6287L311.84 21.7017C311.28 21.7157 310.73 21.5497 310.27 21.2277C309.81 20.9067 309.47 20.4467 309.29 19.9167C309.22 19.7077 309.15 19.4997 309.07 19.2947C308.89 18.8017 308.87 18.2667 309 17.7587C309.13 17.2517 309.42 16.7967 309.81 16.4537L311.63 14.8627C312.15 14.4067 312.47 13.7637 312.52 13.0727C312.56 12.3827 312.33 11.7027 311.88 11.1817L308.86 7.73969C308.63 7.48169 308.36 7.27069 308.05 7.11869C307.74 6.96669 307.41 6.87669 307.07 6.85369C306.73 6.83069 306.38 6.87569 306.06 6.98569C305.74 7.09469 305.44 7.26769 305.18 7.49269L303.35 9.08369C302.96 9.42969 302.47 9.64769 301.95 9.70969C301.43 9.77169 300.9 9.67469 300.44 9.43069C300.25 9.32969 300.05 9.22969 299.85 9.13569C299.35 8.89169 298.94 8.49169 298.68 7.99469C298.42 7.49769 298.33 6.93069 298.42 6.37769L298.84 3.74869C298.95 3.06669 298.79 2.36869 298.38 1.80869C297.97 1.24869 297.36 0.871692 296.68 0.761692L292.16 0.032688C291.48 -0.076312 290.78 0.0896936 290.22 0.494694C289.66 0.899694 289.28 1.51069 289.17 2.19269L288.57 5.91269C288.49 6.40069 288.27 6.85569 287.94 7.22469C287.61 7.59369 287.18 7.86069 286.7 7.99669C285.87 8.23369 285.06 8.52969 284.27 8.88169C283.76 9.11469 283.18 9.17769 282.63 9.06069C282.08 8.94369 281.59 8.65369 281.21 8.23269L279.26 6.00269C279.03 5.74469 278.76 5.53369 278.45 5.38169C278.15 5.22969 277.81 5.13969 277.47 5.11669C277.13 5.09369 276.79 5.13869 276.46 5.24869C276.14 5.35769 275.84 5.53069 275.58 5.75669L272.13 8.77069C271.61 9.22669 271.29 9.86969 271.25 10.5597C271.2 11.2497 271.43 11.9287 271.89 12.4487L274.51 15.4497C274.85 15.8227 275.06 16.2827 275.14 16.7747C275.22 17.2677 275.15 17.7717 274.95 18.2287C274.85 18.4507 274.76 18.6767 274.67 18.9017C274.48 19.3737 274.15 19.7797 273.74 20.0697C273.32 20.3587 272.83 20.5197 272.32 20.5307L268.06 20.6427C267.37 20.6617 266.72 20.9537 266.24 21.4567C265.76 21.9587 265.51 22.6287 265.53 23.3197L265.65 27.8977C265.67 28.5887 265.96 29.2427 266.46 29.7187C266.96 30.1937 267.63 30.4507 268.32 30.4327L271.98 30.3357C272.53 30.3217 273.06 30.4797 273.52 30.7867C273.97 31.0937 274.31 31.5357 274.5 32.0477V32.0827C274.68 32.5767 274.71 33.1137 274.58 33.6237C274.45 34.1337 274.17 34.5917 273.77 34.9377L271.19 37.1957C270.93 37.4207 270.72 37.6957 270.57 38.0027C270.41 38.3097 270.32 38.6437 270.3 38.9857C270.28 39.3277 270.32 39.6707 270.43 39.9947C270.54 40.3197 270.72 40.6197 270.94 40.8767L273.96 44.3227C274.19 44.5797 274.46 44.7907 274.77 44.9427C275.08 45.0937 275.41 45.1837 275.76 45.2067C276.1 45.2287 276.44 45.1837 276.76 45.0737C277.09 44.9637 277.39 44.7907 277.65 44.5657L280.23 42.3077C280.62 41.9597 281.11 41.7407 281.64 41.6787C282.16 41.6167 282.69 41.7147 283.16 41.9607L283.19 41.9817C283.68 42.2347 284.07 42.6327 284.31 43.1207C284.56 43.6087 284.65 44.1617 284.56 44.7007L283.98 48.3027C283.93 48.6407 283.94 48.9867 284.02 49.3197C284.1 49.6537 284.24 49.9687 284.44 50.2457C284.64 50.5237 284.9 50.7597 285.19 50.9387C285.48 51.1187 285.81 51.2387 286.14 51.2927L290.66 52.0187C291.35 52.1277 292.05 51.9617 292.61 51.5567C293.17 51.1517 293.54 50.5407 293.66 49.8587L294.33 45.6627C294.41 45.1617 294.63 44.6937 294.98 44.3187C295.32 43.9427 295.76 43.6767 296.26 43.5517C296.49 43.4927 296.73 43.4297 296.95 43.3607C297.43 43.2227 297.94 43.2257 298.41 43.3667C298.89 43.5087 299.31 43.7837 299.64 44.1587L302.27 47.1597C302.49 47.4177 302.77 47.6287 303.07 47.7797C303.38 47.9317 303.72 48.0217 304.06 48.0437C304.4 48.0667 304.74 48.0217 305.07 47.9117C305.39 47.8017 305.69 47.6287 305.95 47.4027L309.4 44.3887C309.66 44.1627 309.87 43.8887 310.02 43.5817C310.18 43.2747 310.26 42.9417 310.29 42.5997C310.31 42.2577 310.27 41.9157 310.15 41.5907C310.04 41.2667 309.87 40.9677 309.65 40.7097L307.69 38.4767C307.32 38.0537 307.1 37.5227 307.06 36.9627C307.01 36.4027 307.15 35.8447 307.45 35.3687C307.9 34.6387 308.3 33.8787 308.64 33.0937C308.84 32.6327 309.17 32.2387 309.59 31.9587C310.01 31.6797 310.5 31.5257 311 31.5167ZM298.56 33.6527C294.56 37.1567 286.37 36.1607 282.86 32.1597C279.36 28.1577 280.76 21.3927 284.76 17.9197C288.77 14.4457 295.6 16.2937 299.1 20.2947C302.61 24.2957 302.57 30.1487 298.56 33.6497V33.6527Z" fill="#00A3FE"/>
<path d="M291.51 54.9257C291.37 54.9267 291.22 54.9147 291.08 54.8907L286.56 54.1647C286.21 54.1107 285.88 53.9867 285.58 53.8027C285.28 53.6177 285.01 53.3757 284.81 53.0897C284.6 52.8037 284.45 52.4797 284.37 52.1357C284.29 51.7927 284.28 51.4367 284.33 51.0877L284.91 47.4867C285 46.9627 284.92 46.4257 284.68 45.9517C284.44 45.4777 284.06 45.0897 283.59 44.8427H283.55C283.1 44.6077 282.59 44.5147 282.08 44.5767C281.57 44.6387 281.09 44.8527 280.71 45.1907L278.13 47.4477C277.86 47.6807 277.56 47.8587 277.22 47.9717C276.89 48.0847 276.53 48.1307 276.18 48.1077C275.83 48.0847 275.48 47.9927 275.17 47.8367C274.85 47.6797 274.57 47.4637 274.34 47.1977L271.32 43.7487C271.08 43.4837 270.9 43.1757 270.79 42.8417C270.68 42.5067 270.63 42.1537 270.65 41.8017C270.68 41.4497 270.77 41.1057 270.93 40.7897C271.08 40.4737 271.3 40.1917 271.57 39.9597L274.15 37.7027C274.53 37.3627 274.81 36.9157 274.93 36.4207C275.05 35.9247 275.03 35.4027 274.85 34.9237V34.8887C274.67 34.3927 274.34 33.9647 273.9 33.6667C273.46 33.3687 272.94 33.2157 272.41 33.2287L268.76 33.3257C268.05 33.3437 267.36 33.0787 266.84 32.5877C266.32 32.0977 266.02 31.4227 266 30.7107L265.88 26.1327C265.86 25.4217 266.13 24.7327 266.62 24.2167C267.11 23.6997 267.78 23.3987 268.5 23.3787L272.75 23.2647C273.24 23.2547 273.72 23.0997 274.12 22.8187C274.53 22.5387 274.84 22.1447 275.03 21.6877C275.12 21.4587 275.21 21.2327 275.31 21.0107C275.5 20.5687 275.57 20.0817 275.49 19.6067C275.42 19.1307 275.21 18.6867 274.89 18.3257L272.26 15.3247C271.79 14.7887 271.55 14.0887 271.6 13.3787C271.65 12.6677 271.98 12.0047 272.51 11.5357L275.96 8.52069C276.22 8.28769 276.53 8.10969 276.87 7.99669C277.2 7.88369 277.55 7.83769 277.91 7.86069C278.26 7.88469 278.6 7.97769 278.92 8.13369C279.24 8.29069 279.52 8.50869 279.75 8.77469L281.7 11.0037C282.06 11.4137 282.55 11.6967 283.08 11.8097C283.62 11.9237 284.17 11.8607 284.67 11.6327C285.46 11.2807 286.27 10.9827 287.1 10.7437C287.57 10.6107 287.98 10.3497 288.3 9.99068C288.63 9.63168 288.84 9.18969 288.92 8.71569L289.52 4.99569C289.63 4.29269 290.02 3.66369 290.6 3.24669C291.17 2.82969 291.89 2.65969 292.6 2.77269L297.12 3.49869C297.82 3.61269 298.45 4.00169 298.87 4.57869C299.29 5.15669 299.46 5.87569 299.35 6.57969L298.92 9.20469C298.83 9.74169 298.92 10.2927 299.17 10.7757C299.42 11.2587 299.82 11.6467 300.31 11.8827C300.51 11.9767 300.71 12.0777 300.9 12.1777C301.35 12.4117 301.86 12.5037 302.37 12.4417C302.87 12.3797 303.35 12.1667 303.73 11.8307L305.55 10.2397C306.09 9.77168 306.79 9.53569 307.5 9.58269C308.21 9.63069 308.87 9.95769 309.34 10.4937L312.36 13.9357C312.59 14.2007 312.77 14.5087 312.89 14.8427C313 15.1767 313.05 15.5297 313.02 15.8817C313 16.2337 312.91 16.5777 312.75 16.8937C312.59 17.2097 312.38 17.4927 312.11 17.7247L310.29 19.3187C309.91 19.6517 309.63 20.0937 309.5 20.5847C309.38 21.0767 309.4 21.5957 309.57 22.0727C309.65 22.2817 309.72 22.4897 309.79 22.6977C309.96 23.2157 310.29 23.6647 310.74 23.9777C311.18 24.2907 311.72 24.4517 312.26 24.4347L314.93 24.3617C315.64 24.3437 316.33 24.6087 316.85 25.0987C317.36 25.5877 317.66 26.2627 317.68 26.9737L317.81 31.5517C317.83 32.2627 317.56 32.9517 317.07 33.4677C316.58 33.9847 315.91 34.2857 315.2 34.3057L311.43 34.4097C310.94 34.4247 310.48 34.5767 310.08 34.8467C309.68 35.1177 309.36 35.4957 309.17 35.9377C308.82 36.7287 308.42 37.4937 307.97 38.2267C307.68 38.6877 307.54 39.2297 307.59 39.7727C307.63 40.3157 307.84 40.8307 308.2 41.2417L310.16 43.4747C310.39 43.7397 310.57 44.0487 310.68 44.3827C310.79 44.7167 310.84 45.0697 310.82 45.4207C310.79 45.7727 310.7 46.1167 310.55 46.4327C310.39 46.7497 310.17 47.0317 309.91 47.2637L306.44 50.2717C306.18 50.5047 305.87 50.6827 305.53 50.7957C305.2 50.9087 304.85 50.9547 304.49 50.9317C304.14 50.9077 303.8 50.8147 303.48 50.6587C303.16 50.5017 302.88 50.2837 302.65 50.0177L300.02 47.0177C299.71 46.6547 299.29 46.3887 298.83 46.2517C298.37 46.1147 297.88 46.1117 297.41 46.2427C297.18 46.3127 296.94 46.3787 296.72 46.4377C296.24 46.5577 295.81 46.8157 295.48 47.1797C295.14 47.5437 294.93 47.9967 294.85 48.4827L294.18 52.6787C294.07 53.3087 293.75 53.8807 293.26 54.2927C292.77 54.7037 292.15 54.9287 291.51 54.9257ZM282.38 44.3677C282.81 44.3667 283.24 44.4717 283.62 44.6727L283.66 44.6907C284.15 44.9547 284.55 45.3667 284.8 45.8707C285.05 46.3737 285.14 46.9427 285.05 47.4967L284.47 51.0987C284.36 51.7587 284.52 52.4347 284.91 52.9787C285.3 53.5217 285.89 53.8887 286.55 53.9987L291.07 54.7207C291.73 54.8267 292.41 54.6677 292.95 54.2767C293.5 53.8867 293.86 53.2967 293.97 52.6367L294.65 48.4417C294.73 47.9237 294.96 47.4427 295.31 47.0557C295.66 46.6687 296.12 46.3947 296.63 46.2667C296.86 46.2077 297.1 46.1457 297.33 46.0757C297.82 45.9337 298.35 45.9357 298.84 46.0817C299.33 46.2267 299.77 46.5107 300.11 46.8997L302.74 49.8997C302.96 50.1497 303.22 50.3547 303.52 50.5017C303.82 50.6487 304.14 50.7357 304.47 50.7577C304.81 50.7797 305.14 50.7367 305.45 50.6297C305.77 50.5227 306.06 50.3557 306.31 50.1367L309.76 47.1217C310.26 46.6807 310.57 46.0567 310.62 45.3877C310.66 44.7187 310.44 44.0597 310 43.5547L308.04 41.3217C307.66 40.8857 307.43 40.3387 307.38 39.7617C307.34 39.1847 307.48 38.6087 307.79 38.1187C308.24 37.3917 308.64 36.6337 308.98 35.8507C309.19 35.3817 309.52 34.9807 309.94 34.6927C310.37 34.4057 310.87 34.2447 311.38 34.2287L315.14 34.1247C315.81 34.1057 316.45 33.8217 316.91 33.3357C317.37 32.8497 317.62 32.2007 317.6 31.5307L317.48 26.9567C317.46 26.2857 317.18 25.6497 316.69 25.1887C316.21 24.7267 315.56 24.4767 314.89 24.4937L312.22 24.5667C311.64 24.5827 311.08 24.4127 310.6 24.0817C310.13 23.7507 309.78 23.2767 309.6 22.7297C309.53 22.5207 309.46 22.3157 309.38 22.1117C309.2 21.6037 309.17 21.0527 309.31 20.5297C309.44 20.0067 309.73 19.5377 310.14 19.1837L311.96 17.5927C312.21 17.3737 312.42 17.1077 312.56 16.8097C312.71 16.5117 312.8 16.1877 312.82 15.8567C312.84 15.5247 312.8 15.1917 312.69 14.8777C312.59 14.5627 312.42 14.2717 312.2 14.0227L309.18 10.5767C308.74 10.0747 308.11 9.76769 307.44 9.72269C306.77 9.67869 306.11 9.90069 305.61 10.3407L303.79 11.9317C303.38 12.2877 302.88 12.5127 302.34 12.5777C301.81 12.6427 301.26 12.5447 300.78 12.2957C300.59 12.1957 300.4 12.0947 300.2 12.0007C299.68 11.7507 299.25 11.3387 298.99 10.8267C298.72 10.3147 298.63 9.72969 298.72 9.15969L299.15 6.53368C299.25 5.87368 299.09 5.19668 298.7 4.65368C298.31 4.10968 297.72 3.74269 297.06 3.63369L292.54 2.90468C291.88 2.79968 291.2 2.95868 290.66 3.34968C290.12 3.73968 289.75 4.32868 289.64 4.98868L289.04 8.70869C288.95 9.21269 288.73 9.68269 288.39 10.0647C288.05 10.4457 287.6 10.7237 287.11 10.8647C286.29 11.1017 285.48 11.3967 284.7 11.7477C284.17 11.9877 283.58 12.0527 283.02 11.9307C282.45 11.8097 281.94 11.5087 281.55 11.0737L279.6 8.84369C279.38 8.59369 279.12 8.38968 278.82 8.24168C278.52 8.09468 278.2 8.00769 277.86 7.98569C277.53 7.96369 277.2 8.00768 276.89 8.11368C276.57 8.22068 276.28 8.38869 276.03 8.60769L272.58 11.6227C272.08 12.0637 271.77 12.6877 271.73 13.3567C271.68 14.0247 271.9 14.6837 272.34 15.1897L274.97 18.1897C275.31 18.5737 275.53 19.0447 275.61 19.5497C275.69 20.0547 275.63 20.5727 275.42 21.0417C275.33 21.2607 275.23 21.4857 275.14 21.7117C274.95 22.2007 274.61 22.6207 274.18 22.9187C273.74 23.2177 273.23 23.3817 272.71 23.3897L268.45 23.5037C268.12 23.5127 267.79 23.5867 267.49 23.7217C267.19 23.8567 266.91 24.0497 266.68 24.2907C266.46 24.5317 266.28 24.8157 266.16 25.1257C266.04 25.4357 265.98 25.7667 265.99 26.0987L266.11 30.6757C266.13 31.3467 266.42 31.9827 266.9 32.4437C267.39 32.9057 268.04 33.1557 268.71 33.1387L272.37 33.0417C272.93 33.0257 273.48 33.1877 273.95 33.5037C274.41 33.8197 274.77 34.2737 274.96 34.8027V34.8297C275.15 35.3397 275.18 35.8947 275.04 36.4207C274.91 36.9467 274.62 37.4207 274.21 37.7787L271.62 40.0367C271.37 40.2547 271.17 40.5207 271.02 40.8187C270.87 41.1167 270.79 41.4407 270.77 41.7727C270.74 42.1037 270.79 42.4367 270.89 42.7517C271 43.0667 271.17 43.3567 271.39 43.6067L274.41 47.0517C274.63 47.3027 274.89 47.5067 275.19 47.6537C275.49 47.8017 275.82 47.8887 276.15 47.9107C276.48 47.9327 276.81 47.8887 277.13 47.7817C277.44 47.6747 277.73 47.5077 277.98 47.2887L280.56 45.0307C281.06 44.5937 281.71 44.3567 282.38 44.3677Z" fill="#131F2D"/>
<g opacity="0.6">
<path d="M401.68 101.029H157.495C154.003 101.029 151.173 103.856 151.173 107.343V148.827C151.173 152.314 154.003 155.141 157.495 155.141H401.68C405.17 155.141 408 152.314 408 148.827V107.343C408 103.856 405.17 101.029 401.68 101.029Z" fill="#D5D6DA"/>
</g>
<g opacity="0.6">
<path d="M404.16 171.656H286.25C286.01 171.656 285.77 171.609 285.55 171.517C285.33 171.425 285.13 171.29 284.96 171.121C284.79 170.951 284.65 170.749 284.56 170.528C284.47 170.306 284.42 170.069 284.42 169.829V168.752C284.42 168.511 284.47 168.272 284.56 168.05C284.66 167.827 284.79 167.625 284.96 167.456C285.14 167.286 285.34 167.151 285.56 167.06C285.79 166.969 286.02 166.924 286.27 166.925L404.18 168.012C404.66 168.017 405.12 168.211 405.46 168.552C405.8 168.894 405.99 169.355 405.99 169.836C405.99 170.319 405.8 170.782 405.45 171.123C405.11 171.464 404.65 171.656 404.16 171.656Z" fill="#D5D6DA"/>
</g>
<path d="M395.34 125.959H316.22V122.962L395.34 123.663V125.959Z" fill="#657285"/>
<path d="M351.56 132.704H316.22V129.707L351.56 130.412V132.704Z" fill="#00A3FE"/>
<path d="M363.03 147.299H316.22V144.298L363.03 145.003V147.299Z" fill="#00A3FE"/>
<path d="M351.56 140.533H316.22V137.535L351.56 138.24V140.533Z" fill="#5C305D"/>
<path d="M377.33 140.533H356.62V137.535L377.33 138.24V140.533Z" fill="#657285"/>
<path d="M391.95 132.704H356.62V129.707L391.95 130.412V132.704Z" fill="#00A3FE"/>
<g opacity="0.6">
<path d="M404.34 182.155L286.12 183.545C285.9 183.547 285.68 183.506 285.47 183.423C285.27 183.341 285.08 183.218 284.93 183.063C284.77 182.907 284.64 182.722 284.56 182.518C284.47 182.314 284.43 182.095 284.43 181.874V180.485C284.43 180.043 284.61 179.619 284.92 179.306C285.23 178.993 285.66 178.818 286.1 178.818H404.32C404.76 178.818 405.19 178.993 405.5 179.306C405.81 179.618 405.99 180.042 405.99 180.485C405.99 180.924 405.82 181.346 405.51 181.659C405.2 181.971 404.78 182.15 404.34 182.155Z" fill="#D5D6DA"/>
</g>
<g opacity="0.6">
<path d="M216.757 218.842H152.057V214.994L215.704 215.869C216.237 215.877 216.746 216.094 217.12 216.473C217.495 216.853 217.704 217.365 217.703 217.898C217.703 218.148 217.603 218.389 217.426 218.566C217.248 218.743 217.008 218.842 216.757 218.842Z" fill="#D5D6DA"/>
</g>
<g opacity="0.6">
<path d="M236.98 228.244L153.121 229.363C152.982 229.365 152.844 229.341 152.715 229.289C152.586 229.238 152.469 229.162 152.369 229.065C152.27 228.968 152.192 228.852 152.138 228.724C152.084 228.597 152.057 228.459 152.057 228.321V226.619C152.057 226.343 152.167 226.077 152.362 225.882C152.558 225.687 152.823 225.577 153.1 225.577H236.959C237.235 225.577 237.501 225.687 237.696 225.882C237.892 226.077 238.002 226.343 238.002 226.619V227.202C238.002 227.475 237.895 227.737 237.704 227.932C237.512 228.127 237.253 228.239 236.98 228.244Z" fill="#D5D6DA"/>
</g>
<g opacity="0.6">
<path d="M303.8 228.255L245.133 229.352C244.954 229.355 244.776 229.323 244.609 229.257C244.443 229.19 244.291 229.092 244.163 228.966C244.036 228.841 243.934 228.691 243.865 228.526C243.795 228.361 243.76 228.184 243.76 228.005V226.911C243.76 226.553 243.902 226.21 244.155 225.958C244.408 225.705 244.751 225.563 245.109 225.563H303.8C304.16 225.564 304.5 225.706 304.75 225.959C305 226.212 305.15 226.554 305.15 226.911C305.15 227.267 305 227.609 304.75 227.861C304.5 228.113 304.16 228.255 303.8 228.255Z" fill="#D5D6DA"/>
</g>
<g opacity="0.6">
<path d="M404.34 197.357L286.12 198.747C285.9 198.749 285.68 198.708 285.47 198.625C285.27 198.543 285.08 198.42 284.93 198.265C284.77 198.109 284.64 197.924 284.56 197.72C284.47 197.516 284.43 197.297 284.43 197.076V195.687C284.43 195.245 284.61 194.821 284.92 194.508C285.23 194.195 285.66 194.02 286.1 194.02H404.32C404.76 194.02 405.19 194.195 405.5 194.508C405.81 194.82 405.99 195.244 405.99 195.687C405.99 196.126 405.82 196.548 405.51 196.861C405.2 197.173 404.78 197.352 404.34 197.357Z" fill="#D5D6DA"/>
</g>
<path d="M204.869 162.528H156.737C153.664 162.528 151.173 165.016 151.173 168.085V198.153C151.173 201.222 153.664 203.71 156.737 203.71H204.869C207.942 203.71 210.432 201.222 210.432 198.153V168.085C210.432 165.016 207.942 162.528 204.869 162.528Z" fill="#D5D6DA"/>
<g opacity="0.6">
<path d="M266.68 162.528H223.12C220.506 162.528 218.388 164.645 218.388 167.255V198.983C218.388 201.593 220.506 203.71 223.12 203.71H266.68C269.29 203.71 271.41 201.593 271.41 198.983V167.255C271.41 164.645 269.29 162.528 266.68 162.528Z" fill="#D5D6DA"/>
</g>
<path d="M206.507 226.591C206.19 243.738 204.952 267.21 201.051 287.792C194.553 322.135 154.539 345.696 147.157 349.784C146.797 349.983 146.395 350.095 145.984 350.111C145.573 350.126 145.164 350.046 144.79 349.875C82.2027 321.155 83.1797 277.511 83.1797 277.511V226.251C83.1797 225.559 83.4517 224.894 83.9377 224.401C84.4237 223.908 85.0847 223.626 85.7767 223.615C95.3077 223.458 128.545 221.666 143.072 204.623C143.309 204.348 143.601 204.125 143.929 203.969C144.257 203.812 144.614 203.725 144.978 203.714C145.341 203.702 145.703 203.765 146.04 203.901C146.378 204.036 146.684 204.239 146.938 204.498C153.197 210.851 173.6 228.463 206.395 226.598L206.507 226.591Z" fill="#00A3FE"/>
<path d="M145.833 341.438C145.792 341.437 145.752 341.429 145.714 341.414C132.954 335.669 122.119 328.737 113.503 320.797C106.608 314.445 101.115 307.436 97.1607 299.958C90.4437 287.233 90.5827 277.442 90.5827 277.344V234.381C90.5747 233.209 91.0267 232.08 91.8417 231.236C92.6567 230.392 93.7697 229.901 94.9427 229.866C99.6227 229.706 108.889 229.088 118.326 226.713C129.584 223.878 137.884 219.419 143.013 213.466C143.252 213.184 143.547 212.956 143.88 212.795C144.213 212.634 144.575 212.545 144.945 212.532C145.314 212.52 145.682 212.585 146.025 212.723C146.367 212.861 146.677 213.069 146.935 213.334C150.412 216.904 159.762 225.58 171.736 229.001C179.179 231.077 186.839 232.278 194.56 232.582C195.705 232.63 196.785 233.124 197.57 233.958C198.354 234.793 198.78 235.901 198.756 237.045C198.256 257.078 196.802 273.222 194.306 286.399C192.866 293.995 189.438 301.618 184.083 309.051C179.81 314.987 174.32 320.818 167.762 326.382C161.021 332.105 153.72 337.134 145.968 341.393C145.927 341.419 145.881 341.435 145.833 341.438ZM145.036 213.115H144.967C144.676 213.125 144.39 213.195 144.127 213.321C143.865 213.446 143.631 213.624 143.44 213.844C138.253 219.895 129.856 224.413 118.479 227.275C108.99 229.665 99.6817 230.286 94.9737 230.446C93.9517 230.477 92.9827 230.905 92.2717 231.64C91.5617 232.374 91.1657 233.357 91.1697 234.378V277.362C91.1697 277.466 91.0348 287.135 97.6968 299.739C101.608 307.141 107.064 314.091 113.914 320.394C122.45 328.254 133.183 335.131 145.822 340.831C153.493 336.601 160.722 331.617 167.401 325.951C177.637 317.269 190.519 303.331 193.743 286.302C196.232 273.159 197.682 257.044 198.183 237.042C198.199 236.048 197.828 235.088 197.147 234.363C196.466 233.639 195.529 233.208 194.535 233.162C186.772 232.855 179.071 231.646 171.587 229.561C159.48 226.087 150.029 217.345 146.532 213.74C146.338 213.54 146.105 213.382 145.848 213.274C145.591 213.167 145.315 213.113 145.036 213.115Z" fill="#131F2D"/>
<path d="M159.25 298.52H119.644C117.881 298.519 116.191 297.818 114.945 296.573C113.698 295.328 112.997 293.64 112.996 291.88V267.47C112.997 265.709 113.697 264.02 114.944 262.774C116.19 261.529 117.88 260.828 119.644 260.826H121.876C122.831 256.891 125.083 253.39 128.27 250.887C131.457 248.383 135.393 247.022 139.447 247.022C143.501 247.022 147.438 248.383 150.624 250.887C153.811 253.39 156.063 256.891 157.018 260.826H159.25C161.014 260.828 162.705 261.528 163.952 262.774C165.199 264.02 165.9 265.709 165.902 267.47V291.88C165.899 293.641 165.197 295.329 163.951 296.574C162.704 297.818 161.013 298.519 159.25 298.52ZM119.644 261.396C118.032 261.398 116.487 262.039 115.348 263.178C114.208 264.317 113.568 265.86 113.566 267.47V291.88C113.568 293.489 114.209 295.032 115.348 296.171C116.487 297.309 118.032 297.949 119.644 297.951H159.25C160.862 297.949 162.407 297.309 163.547 296.171C164.687 295.033 165.329 293.49 165.332 291.88V267.47C165.33 265.86 164.689 264.316 163.549 263.177C162.408 262.038 160.863 261.397 159.25 261.396H156.792C156.728 261.396 156.665 261.374 156.615 261.335C156.564 261.295 156.529 261.239 156.514 261.177C155.625 257.32 153.453 253.879 150.353 251.415C147.253 248.951 143.409 247.609 139.447 247.609C135.485 247.609 131.641 248.951 128.541 251.415C125.441 253.879 123.269 257.32 122.38 261.177C122.366 261.24 122.33 261.296 122.28 261.335C122.229 261.375 122.166 261.396 122.102 261.396H119.644ZM152.244 261.396H126.653C126.609 261.396 126.565 261.386 126.525 261.366C126.485 261.346 126.45 261.317 126.424 261.281C126.397 261.245 126.379 261.204 126.371 261.16C126.364 261.116 126.366 261.07 126.379 261.027C127.248 258.244 128.984 255.811 131.335 254.084C133.686 252.356 136.528 251.424 139.447 251.424C142.366 251.424 145.208 252.356 147.559 254.084C149.91 255.811 151.647 258.244 152.515 261.027C152.529 261.07 152.533 261.115 152.526 261.159C152.518 261.203 152.501 261.245 152.474 261.281C152.448 261.317 152.413 261.346 152.373 261.366C152.333 261.386 152.289 261.396 152.244 261.396ZM127.046 260.826H151.855C150.966 258.247 149.293 256.01 147.07 254.426C144.847 252.842 142.185 251.99 139.454 251.99C136.723 251.99 134.061 252.842 131.838 254.426C129.615 256.01 127.942 258.247 127.053 260.826H127.046Z" fill="#131F2D"/>
<path d="M163.107 257.249H125.795C122.025 257.249 118.969 260.301 118.969 264.066V287.556C118.969 291.321 122.025 294.373 125.795 294.373H163.107C166.876 294.373 169.932 291.321 169.932 287.556V264.066C169.932 260.301 166.876 257.249 163.107 257.249Z" fill="#131F2D"/>
<path d="M144.452 279.012C140.931 279.012 137.489 277.97 134.561 276.016C131.632 274.062 129.35 271.285 128.002 268.036C126.654 264.786 126.302 261.21 126.988 257.761C127.675 254.311 129.371 251.142 131.861 248.655C134.351 246.168 137.523 244.474 140.977 243.788C144.43 243.102 148.01 243.454 151.263 244.801C154.516 246.147 157.297 248.427 159.252 251.352C161.208 254.276 162.252 257.715 162.251 261.232C162.246 265.946 160.369 270.465 157.032 273.798C153.695 277.131 149.171 279.006 144.452 279.012ZM144.452 247.843C141.801 247.843 139.209 248.627 137.005 250.098C134.8 251.569 133.081 253.66 132.066 256.106C131.051 258.553 130.785 261.245 131.302 263.842C131.819 266.44 133.095 268.826 134.97 270.699C136.844 272.572 139.232 273.847 141.833 274.364C144.433 274.881 147.128 274.616 149.578 273.603C152.027 272.589 154.121 270.873 155.594 268.671C157.067 266.469 157.853 263.881 157.853 261.232C157.849 257.683 156.436 254.28 153.924 251.77C151.412 249.26 148.006 247.848 144.452 247.843Z" fill="#131F2D"/>
<path d="M144.452 277.261C143.96 277.26 143.489 277.064 143.141 276.717C142.793 276.369 142.597 275.898 142.596 275.406V266.414C142.597 265.923 142.793 265.452 143.141 265.104C143.489 264.756 143.96 264.561 144.452 264.56C144.944 264.562 145.415 264.758 145.762 265.105C146.109 265.453 146.305 265.923 146.306 266.414V275.406C146.305 275.897 146.109 276.368 145.762 276.716C145.415 277.063 144.944 277.259 144.452 277.261Z" fill="#00A3FE"/>
<path d="M144.452 285.413C147.216 285.413 149.456 283.175 149.456 280.415C149.456 277.654 147.216 275.417 144.452 275.417C141.689 275.417 139.449 277.654 139.449 280.415C139.449 283.175 141.689 285.413 144.452 285.413Z" fill="#00A3FE"/>
<path d="M235.453 150.299C235.343 150.299 235.235 150.273 235.137 150.223L228.002 146.66C227.918 146.619 227.842 146.562 227.781 146.493C227.719 146.423 227.672 146.341 227.642 146.253C227.613 146.164 227.601 146.071 227.609 145.978C227.616 145.885 227.642 145.794 227.685 145.711C227.726 145.627 227.783 145.552 227.853 145.49C227.923 145.429 228.004 145.382 228.093 145.352C228.181 145.323 228.275 145.311 228.368 145.319C228.461 145.326 228.552 145.352 228.635 145.395L235.78 148.952C235.938 149.012 236.068 149.127 236.148 149.275C236.227 149.424 236.249 149.597 236.21 149.761C236.172 149.925 236.075 150.069 235.937 150.167C235.8 150.265 235.631 150.309 235.464 150.292L235.453 150.299Z" fill="#131F2D"/>
<path d="M225.314 158.854C225.126 158.86 224.944 158.791 224.807 158.663C224.67 158.535 224.59 158.357 224.584 158.17C224.578 157.982 224.647 157.8 224.775 157.663C224.904 157.527 225.081 157.446 225.269 157.44L233.196 156.905C233.384 156.893 233.568 156.954 233.71 157.078C233.851 157.201 233.938 157.375 233.951 157.562C233.964 157.749 233.902 157.933 233.779 158.075C233.655 158.216 233.481 158.303 233.294 158.316L225.363 158.85L225.314 158.854Z" fill="#131F2D"/>
<path d="M229.799 170.725C229.639 170.734 229.481 170.688 229.351 170.594C229.221 170.5 229.128 170.364 229.087 170.209C229.046 170.054 229.06 169.89 229.127 169.744C229.193 169.598 229.308 169.48 229.452 169.409L236.347 165.363C236.427 165.316 236.515 165.285 236.607 165.272C236.699 165.259 236.792 165.264 236.882 165.288C236.972 165.311 237.056 165.352 237.13 165.407C237.204 165.463 237.266 165.533 237.313 165.613C237.36 165.692 237.391 165.781 237.404 165.872C237.417 165.964 237.412 166.058 237.388 166.147C237.365 166.237 237.324 166.321 237.269 166.395C237.213 166.469 237.143 166.531 237.063 166.578L230.171 170.624C230.059 170.691 229.93 170.726 229.799 170.725Z" fill="#131F2D"/>
<path d="M258.645 150.299C258.513 150.301 258.384 150.264 258.271 150.195C258.159 150.125 258.069 150.026 258.012 149.907C257.969 149.824 257.943 149.734 257.935 149.641C257.928 149.548 257.939 149.454 257.969 149.366C257.998 149.277 258.045 149.196 258.107 149.126C258.169 149.056 258.244 148.999 258.329 148.959L265.47 145.402C265.56 145.361 265.65 145.336 265.74 145.33C265.83 145.324 265.93 145.336 266.01 145.365C266.1 145.395 266.18 145.441 266.25 145.502C266.32 145.563 266.38 145.637 266.42 145.72C266.46 145.803 266.49 145.893 266.49 145.986C266.5 146.078 266.49 146.171 266.46 146.259C266.43 146.347 266.38 146.428 266.32 146.498C266.26 146.568 266.19 146.625 266.1 146.666L258.947 150.216C258.854 150.266 258.751 150.295 258.645 150.299Z" fill="#131F2D"/>
<path d="M268.78 158.854H268.73L260.804 158.319C260.617 158.306 260.442 158.219 260.319 158.078C260.196 157.937 260.134 157.752 260.147 157.565C260.16 157.378 260.246 157.204 260.388 157.081C260.529 156.958 260.714 156.896 260.901 156.909L268.83 157.444C269.02 157.45 269.19 157.53 269.32 157.667C269.45 157.804 269.52 157.986 269.51 158.173C269.51 158.361 269.43 158.538 269.29 158.666C269.15 158.795 268.97 158.863 268.78 158.857V158.854Z" fill="#131F2D"/>
<path d="M264.298 170.725C264.176 170.723 264.056 170.688 263.951 170.624L257.059 166.578C256.979 166.531 256.91 166.469 256.854 166.395C256.798 166.321 256.757 166.237 256.734 166.147C256.711 166.058 256.705 165.964 256.718 165.872C256.731 165.781 256.762 165.692 256.809 165.613C256.856 165.533 256.918 165.463 256.992 165.407C257.066 165.352 257.151 165.311 257.24 165.288C257.33 165.264 257.424 165.259 257.515 165.272C257.607 165.285 257.696 165.316 257.776 165.363L264.657 169.402C264.8 169.473 264.915 169.591 264.982 169.737C265.05 169.883 265.06 170.047 265.02 170.202C264.98 170.357 264.887 170.493 264.757 170.587C264.627 170.681 264.469 170.727 264.309 170.718L264.298 170.725Z" fill="#131F2D"/>
<path d="M261.242 154.815C261.242 163.984 255.154 171.486 247.504 171.937C247.254 171.951 247.004 171.958 246.753 171.958C238.756 171.958 232.265 164.282 232.265 154.815C232.232 151.002 233.342 147.266 235.453 144.089C238.106 140.175 242.181 137.667 246.753 137.667C248.004 137.669 249.248 137.858 250.443 138.23C253.572 139.264 256.255 141.33 258.054 144.089C260.164 147.266 261.275 151.002 261.242 154.815Z" fill="#657285"/>
<path d="M261.242 154.814C261.242 163.984 255.154 171.486 247.504 171.937C246.515 169.105 245.807 166.183 245.39 163.212C244.514 157.051 244.886 151.209 246.228 146.458C247.178 143.075 248.621 140.241 250.442 138.23C253.571 139.264 256.255 141.33 258.054 144.089C260.164 147.266 261.275 151.002 261.242 154.814Z" fill="#657285"/>
<path d="M246.753 150.515C252.994 150.515 258.054 147.639 258.054 144.093C258.054 140.546 252.994 137.671 246.753 137.671C240.512 137.671 235.453 140.546 235.453 144.093C235.453 147.639 240.512 150.515 246.753 150.515Z" fill="#131F2D"/>
<path d="M243.582 139.897C243.398 139.897 243.221 139.824 243.091 139.694C242.96 139.563 242.887 139.387 242.887 139.203C242.755 133.836 237.8 131.662 237.748 131.641C237.575 131.568 237.439 131.428 237.368 131.254C237.298 131.08 237.3 130.885 237.374 130.712C237.448 130.54 237.587 130.403 237.762 130.333C237.936 130.263 238.131 130.265 238.304 130.339C238.544 130.443 244.149 132.902 244.299 139.168C244.303 139.261 244.287 139.355 244.254 139.442C244.221 139.53 244.17 139.61 244.105 139.677C244.04 139.745 243.962 139.798 243.876 139.835C243.79 139.871 243.697 139.89 243.603 139.89L243.582 139.897Z" fill="#131F2D"/>
<path d="M249.431 141.714C249.254 141.714 249.083 141.647 248.954 141.527C248.825 141.406 248.747 141.241 248.735 141.064C248.134 133.5 253.297 130.506 253.516 130.381C253.679 130.289 253.873 130.265 254.053 130.315C254.234 130.365 254.387 130.485 254.479 130.648C254.572 130.811 254.595 131.004 254.545 131.185C254.495 131.365 254.375 131.518 254.212 131.61C254.017 131.722 249.618 134.323 250.143 140.953C250.152 141.046 250.142 141.139 250.114 141.227C250.086 141.316 250.04 141.398 249.98 141.468C249.92 141.539 249.846 141.596 249.763 141.638C249.68 141.68 249.589 141.704 249.497 141.71L249.431 141.714Z" fill="#131F2D"/>
<g opacity="0.4">
<path d="M289.29 198.476C312.27 175.515 312.27 138.286 289.29 115.324C266.3 92.3627 229.031 92.3627 206.044 115.324C183.056 138.286 183.056 175.515 206.043 198.476C229.031 221.438 266.3 221.438 289.29 198.476Z" fill="#00A3FE"/>
</g>
<path d="M314.58 207.009C314.58 207.009 304.18 207.235 301.33 202.682C298.47 198.128 303.31 194.166 303.31 194.166L318.79 202.525L314.58 207.009Z" fill="#FF7955"/>
<path d="M298.37 183.195L293.84 190.497L408.66 261.526L413.19 254.224L298.37 183.195Z" fill="#131F2D"/>
<path d="M414.3 257.249L411.84 261.215C411.37 261.972 410.61 262.512 409.75 262.716C408.88 262.92 407.97 262.771 407.21 262.302L347.31 225.243C346.55 224.774 346.01 224.023 345.81 223.155C345.6 222.288 345.75 221.375 346.22 220.617L348.68 216.651C349.15 215.894 349.9 215.354 350.77 215.15C351.64 214.946 352.55 215.095 353.31 215.564L413.21 252.622C413.97 253.092 414.51 253.843 414.71 254.711C414.92 255.578 414.77 256.491 414.3 257.249Z" fill="#131F2D"/>
<path d="M195.279 124.487C188.862 134.836 185.66 146.855 186.081 159.022C186.501 171.189 190.523 182.958 197.64 192.842C204.756 202.725 214.647 210.279 226.061 214.547C237.475 218.816 249.9 219.607 261.765 216.822C273.63 214.037 284.4 207.8 292.72 198.9C301.03 190 306.52 178.837 308.48 166.822C310.45 154.807 308.8 142.48 303.75 131.399C298.7 120.319 290.48 110.983 280.12 104.571C273.24 100.314 265.59 97.4527 257.6 96.1497C249.614 94.8467 241.448 95.1277 233.57 96.9767C225.692 98.8257 218.255 102.208 211.685 106.928C205.116 111.648 199.541 117.614 195.279 124.487ZM295.46 186.469C289.6 195.911 281.07 203.407 270.95 208.008C260.833 212.61 249.574 214.11 238.601 212.32C227.627 210.53 217.431 205.529 209.302 197.95C201.173 190.372 195.477 180.556 192.933 169.743C190.39 158.931 191.113 147.608 195.011 137.206C198.91 126.804 205.809 117.791 214.836 111.306C223.863 104.82 234.613 101.155 245.726 100.772C256.838 100.39 267.81 103.307 277.27 109.156C283.54 113.039 288.99 118.119 293.3 124.106C297.62 130.093 300.7 136.87 302.39 144.049C304.08 151.229 304.34 158.67 303.15 165.948C301.96 173.227 299.34 180.2 295.46 186.469Z" fill="#131F2D"/>
<path d="M407.53 220.134C404.75 199.334 381.4 187.584 381.4 187.584C381.4 187.584 383.38 233.94 387.37 232.572C394.2 230.231 403.56 230.182 407.53 220.134Z" fill="#00A3FE"/>
<path d="M361.9 337.059C361.9 337.059 361.72 340.532 359.37 341.463C357.02 342.393 350.26 343.085 352.72 345.391C354.13 346.717 360.96 346.085 362.88 346.124C364.8 346.162 366.58 347.075 368.05 345.811C369.66 344.422 368.28 337.236 368.28 337.236C368.28 337.236 366.59 338.066 365.1 337.986C362.96 337.871 361.9 337.059 361.9 337.059Z" fill="#131F2D"/>
<path d="M345.04 249.285C345.49 256.512 346.34 265.893 347.91 277.369C350.9 299.25 354.53 321.301 356.32 331.877C356.6 333.684 357.48 335.345 358.82 336.592C360.16 337.839 361.88 338.599 363.7 338.75L365.69 338.886C369.68 339.156 373.02 335.76 372.84 331.613L369.71 260.305L369.41 248.962C369.41 248.962 344.3 237.431 345.04 249.285Z" fill="#364154"/>
<path d="M383.92 337.663C383.92 337.663 383.74 341.136 381.39 342.063C379.04 342.991 372.28 343.685 374.74 345.995C376.15 347.318 382.97 346.69 384.9 346.728C386.82 346.766 388.6 347.68 390.06 346.412C391.67 345.023 390.29 337.837 390.29 337.837C390.29 337.837 388.61 338.667 387.12 338.587C384.97 338.472 383.92 337.663 383.92 337.663Z" fill="#131F2D"/>
<path d="M366.66 231.968C366.66 231.968 365.78 247.68 369.92 277.977C372.92 299.858 376.55 321.909 378.34 332.485C378.62 334.292 379.5 335.954 380.83 337.201C382.17 338.448 383.89 339.208 385.72 339.358L387.71 339.493C391.7 339.764 395.04 336.368 394.85 332.221L391.72 260.913L391.11 237.455L366.66 231.968Z" fill="#364154"/>
<path d="M370.91 284.145L370.61 284.103C370.61 283.975 372.32 271.096 373.6 266.473C374.88 261.851 380.83 257.791 380.9 257.738L381.07 257.992C381.02 258.03 375.16 261.997 373.9 266.553C372.64 271.11 370.91 284.016 370.91 284.145Z" fill="#131F2D"/>
<path d="M370.98 183.67L369.44 178.97L368.99 177.602L366.34 169.555L365.99 177.543L365.78 182.35L365.72 183.871C365.67 184.913 365 185.118 364.19 186.018C363.86 186.365 361.76 188.584 364.15 189.578C367.13 190.821 372.7 188.942 374.82 186.479C374.8 186.49 371.48 185.191 370.98 183.67Z" fill="#FF7955"/>
<path d="M374.13 173.942C375.03 169.259 372.42 164.825 368.3 164.039C364.19 163.253 360.13 166.412 359.23 171.096C358.34 175.78 360.94 180.214 365.06 181C369.17 181.786 373.23 178.626 374.13 173.942Z" fill="#FF7955"/>
<path d="M362.47 169.555C358.13 169.708 356.02 167.349 355.97 165.165C355.91 162.362 357.78 159.882 359.96 160.924C362.14 161.966 361.21 159.41 363.3 159.139C367.22 158.632 367.96 161.257 371.16 161.386C375.39 161.552 380.2 168.19 376.67 173.035C376.67 173.035 365.9 169.433 362.47 169.555Z" fill="#131F2D"/>
<path d="M358.6 166.727C358.6 166.727 363.24 170.933 362.63 173.302C362.02 175.671 362.17 176.595 364.88 177.859C367.59 179.123 365.2 181.169 368.81 181.332C372.42 181.495 376.84 177.463 376.84 170.857C376.82 168.627 376.03 166.473 374.59 164.765L358.6 166.727Z" fill="#131F2D"/>
<path d="M360.29 173.198C360.52 172.863 360.88 172.628 361.28 172.541C361.68 172.453 362.09 172.519 362.45 172.726C362.61 172.841 362.74 172.988 362.84 173.158C362.94 173.328 363.01 173.516 363.03 173.712C363.06 173.908 363.04 174.106 362.98 174.295C362.93 174.484 362.83 174.659 362.7 174.81C362.47 175.145 362.11 175.379 361.71 175.466C361.31 175.553 360.9 175.486 360.54 175.278C360.38 175.164 360.25 175.017 360.15 174.848C360.05 174.678 359.98 174.49 359.96 174.294C359.93 174.098 359.95 173.9 360.01 173.711C360.06 173.522 360.16 173.348 360.29 173.198Z" fill="#FFB27D"/>
<path d="M378.41 174.858C378.39 174.857 378.36 174.848 378.34 174.833C378.32 174.817 378.31 174.796 378.3 174.771C378.11 174.186 377.72 173.692 377.18 173.382C377.17 173.376 377.16 173.367 377.15 173.356C377.14 173.345 377.14 173.332 377.13 173.318C377.13 173.304 377.13 173.29 377.13 173.276C377.13 173.262 377.13 173.248 377.14 173.236C377.15 173.224 377.16 173.212 377.17 173.203C377.18 173.194 377.19 173.187 377.21 173.183C377.22 173.179 377.23 173.178 377.25 173.179C377.26 173.18 377.28 173.184 377.29 173.191C377.88 173.533 378.32 174.085 378.52 174.737C378.52 174.751 378.52 174.765 378.52 174.779C378.52 174.793 378.51 174.807 378.5 174.819C378.5 174.832 378.49 174.842 378.47 174.851C378.46 174.859 378.45 174.865 378.44 174.869L378.41 174.858Z" fill="#131F2D"/>
<path d="M377.24 172.875C377.21 172.875 377.18 172.865 377.16 172.846C377.14 172.827 377.13 172.801 377.13 172.774C377.13 172.76 377.13 172.746 377.13 172.732C377.14 172.719 377.14 172.707 377.15 172.696C377.16 172.685 377.18 172.677 377.19 172.67C377.2 172.664 377.21 172.66 377.23 172.66C377.23 172.66 378.41 172.58 378.58 171.725C378.59 171.697 378.61 171.672 378.63 171.656C378.65 171.64 378.68 171.633 378.71 171.638C378.74 171.644 378.76 171.661 378.78 171.685C378.8 171.709 378.8 171.738 378.8 171.767C378.59 172.785 377.3 172.871 377.24 172.875Z" fill="#131F2D"/>
<path d="M360.62 160.757C360.54 160.757 360.46 160.746 360.39 160.722C360.07 160.623 359.77 160.473 359.5 160.278C359.25 160.07 358.95 159.931 358.63 159.876C358.32 159.821 357.99 159.852 357.69 159.965C357.67 159.97 357.66 159.971 357.65 159.97C357.63 159.968 357.62 159.964 357.6 159.957C357.59 159.951 357.58 159.941 357.57 159.93C357.56 159.919 357.56 159.906 357.55 159.892C357.55 159.879 357.55 159.864 357.55 159.85C357.55 159.836 357.55 159.822 357.56 159.809C357.57 159.797 357.58 159.786 357.59 159.777C357.6 159.768 357.61 159.761 357.63 159.757C357.96 159.636 358.32 159.605 358.67 159.666C359.02 159.727 359.34 159.878 359.61 160.104C359.87 160.287 360.15 160.427 360.45 160.521C360.52 160.546 360.6 160.554 360.68 160.542C360.76 160.531 360.84 160.501 360.91 160.455C361.38 160.132 361.5 159.066 361.5 159.066C361.5 159.038 361.52 159.012 361.54 158.994C361.56 158.976 361.59 158.967 361.62 158.969C361.63 158.97 361.65 158.974 361.66 158.981C361.67 158.988 361.68 158.997 361.69 159.009C361.7 159.02 361.71 159.033 361.71 159.047C361.72 159.061 361.72 159.076 361.71 159.09C361.71 159.135 361.59 160.25 361.02 160.632C360.9 160.714 360.76 160.758 360.62 160.757Z" fill="#131F2D"/>
<path d="M370.83 161.038C369.81 160.993 368.83 160.607 368.05 159.941C368.04 159.932 368.03 159.921 368.02 159.908C368.01 159.895 368.01 159.88 368 159.865C368 159.85 368 159.835 368.01 159.82C368.01 159.806 368.02 159.793 368.03 159.781C368.04 159.77 368.05 159.761 368.07 159.755C368.08 159.749 368.1 159.745 368.11 159.745C368.13 159.745 368.14 159.748 368.16 159.755C368.17 159.761 368.18 159.77 368.19 159.781C368.19 159.781 369.63 161.042 371.29 160.788C371.32 160.784 371.35 160.792 371.37 160.808C371.4 160.825 371.41 160.851 371.42 160.879C371.42 160.907 371.41 160.936 371.4 160.959C371.38 160.983 371.35 160.999 371.32 161.004C371.16 161.027 371 161.039 370.83 161.038Z" fill="#131F2D"/>
<path d="M361.45 175.577C361.35 175.58 361.25 175.567 361.15 175.539C361.14 175.538 361.14 175.535 361.13 175.531C361.12 175.527 361.12 175.522 361.11 175.515C361.11 175.509 361.11 175.502 361.11 175.494C361.1 175.486 361.1 175.479 361.11 175.471C361.11 175.464 361.11 175.457 361.12 175.451C361.12 175.446 361.13 175.441 361.14 175.439C361.14 175.436 361.15 175.435 361.16 175.435C361.17 175.436 361.18 175.438 361.18 175.442C361.22 175.442 362.16 175.737 362.83 174.487C362.83 174.48 362.84 174.475 362.84 174.47C362.85 174.466 362.85 174.463 362.86 174.461C362.87 174.459 362.87 174.458 362.88 174.459C362.89 174.46 362.89 174.462 362.9 174.466C362.91 174.472 362.92 174.483 362.92 174.496C362.93 174.509 362.93 174.523 362.92 174.535C362.44 175.428 361.82 175.577 361.45 175.577Z" fill="#131F2D"/>
<path d="M345.04 249.285C345.04 249.285 376.53 247.548 391.47 251.191L391.7 246.871L370.74 240.602L353.82 241.022L348.63 242.147L344.96 247.895L345.04 249.285Z" fill="#131F2D"/>
<path d="M388.68 196.663C388.68 196.663 385.9 184.576 368.95 184.576C339.4 184.576 347.69 209.017 344.96 247.878C344.96 247.878 364.01 243.689 391.57 249.267C391.57 249.267 394.26 228.223 390.79 210.434C389.87 205.731 390.03 200.747 388.68 196.663Z" fill="#00A3FE"/>
<path d="M365.55 184.576C365.55 184.576 356.07 184.715 349.02 191.463C341.98 198.212 332.9 207.503 330.97 212.848C328.6 219.447 332.97 226.046 338.51 226.178C344.05 226.31 349.02 222.243 349.02 222.243L365.55 184.576Z" fill="#00A3FE"/>
<path d="M392.47 239.782H392.26C393.08 224.538 390.42 208.933 390.39 208.777L390.6 208.742C390.61 208.888 393.28 224.518 392.47 239.782Z" fill="#131F2D"/>
<path d="M345.74 224.434L345.63 224.257C351.2 220.923 358.45 212.146 358.52 212.056L358.68 212.191C358.61 212.278 351.34 221.086 345.74 224.434Z" fill="#131F2D"/>
<path d="M307.06 208.749C306.99 213.06 328.36 228.814 341.18 226.181C354.81 223.403 337.99 208.239 337.99 208.239L312.87 202.463C312.87 202.463 307.13 204.384 307.06 208.749Z" fill="#00A3FE"/>
<path d="M312.87 202.463C312.94 201.961 312.89 201.45 312.71 200.974C312.54 200.497 312.25 200.071 311.88 199.73C310.59 198.594 309.25 193.415 308.4 194.714C307.56 196.013 308.34 200.146 307.06 200.591C305.78 201.035 312.87 202.463 312.87 202.463Z" fill="#FF7955"/>
<path d="M322.27 110.358H321.01C320.84 110.358 320.68 110.423 320.57 110.539C320.45 110.655 320.39 110.812 320.39 110.976V116.533C320.39 116.698 320.32 116.856 320.2 116.973C320.09 117.089 319.93 117.155 319.76 117.155H319.32C319.15 117.154 319 117.088 318.88 116.972C318.77 116.855 318.7 116.697 318.7 116.533V110.976C318.7 110.812 318.63 110.655 318.52 110.539C318.4 110.423 318.24 110.358 318.08 110.358H316.85C316.68 110.358 316.52 110.292 316.41 110.176C316.29 110.059 316.22 109.901 316.22 109.736V109.615C316.22 109.45 316.29 109.292 316.41 109.175C316.52 109.058 316.68 108.993 316.85 108.993H322.27C322.44 108.993 322.59 109.058 322.71 109.175C322.83 109.292 322.89 109.45 322.89 109.615V109.736C322.89 109.901 322.83 110.059 322.71 110.176C322.59 110.292 322.44 110.358 322.27 110.358Z" fill="#00A3FE"/>
<path d="M328.14 113.612H326.14C325.98 113.612 325.82 113.678 325.71 113.794C325.59 113.909 325.53 114.067 325.53 114.231V115.179C325.53 115.343 325.59 115.501 325.71 115.617C325.82 115.734 325.98 115.8 326.14 115.801H328.7C328.78 115.801 328.87 115.817 328.94 115.848C329.02 115.879 329.08 115.925 329.14 115.983C329.2 116.041 329.25 116.109 329.28 116.185C329.31 116.26 329.32 116.341 329.32 116.422V116.533C329.32 116.615 329.31 116.696 329.28 116.771C329.25 116.846 329.2 116.915 329.14 116.973C329.08 117.031 329.02 117.076 328.94 117.108C328.87 117.139 328.78 117.155 328.7 117.155H324.46C324.3 117.155 324.14 117.09 324.02 116.973C323.9 116.856 323.84 116.698 323.84 116.533V109.587C323.84 109.422 323.9 109.264 324.02 109.147C324.14 109.031 324.3 108.965 324.46 108.965H328.69C328.86 108.966 329.01 109.032 329.13 109.149C329.25 109.265 329.31 109.423 329.31 109.587V109.709C329.31 109.873 329.25 110.03 329.13 110.147C329.01 110.263 328.86 110.329 328.69 110.33H326.14C325.98 110.33 325.82 110.395 325.71 110.511C325.59 110.627 325.53 110.785 325.53 110.949V111.643C325.53 111.807 325.59 111.965 325.71 112.082C325.82 112.198 325.98 112.264 326.14 112.265H328.14C328.3 112.265 328.46 112.33 328.58 112.446C328.7 112.562 328.76 112.719 328.76 112.883V112.963C328.77 113.047 328.75 113.131 328.72 113.209C328.69 113.288 328.65 113.36 328.59 113.421C328.53 113.481 328.46 113.53 328.38 113.563C328.31 113.596 328.22 113.613 328.14 113.612Z" fill="#00A3FE"/>
<path d="M334.57 115.008C334.57 114.878 334.55 114.747 334.51 114.623C334.46 114.498 334.38 114.389 334.27 114.307C334.12 114.191 333.95 114.095 333.78 114.022C333.52 113.907 333.25 113.807 332.97 113.723C332.62 113.609 332.27 113.475 331.93 113.32C331.62 113.183 331.32 113.004 331.06 112.789C330.82 112.598 330.62 112.362 330.47 112.094C330.32 111.805 330.25 111.486 330.25 111.162C330.25 110.838 330.32 110.519 330.47 110.229C330.62 109.944 330.83 109.696 331.09 109.507C331.38 109.298 331.7 109.14 332.04 109.041C332.44 108.93 332.85 108.875 333.26 108.878C333.68 108.873 334.1 108.936 334.5 109.066C334.85 109.178 335.17 109.356 335.45 109.59C335.71 109.809 335.91 110.082 336.05 110.389C336.09 110.456 336.11 110.522 336.14 110.587C336.17 110.68 336.18 110.78 336.16 110.877C336.15 110.974 336.11 111.066 336.05 111.146C335.99 111.226 335.92 111.29 335.83 111.335C335.74 111.38 335.64 111.403 335.55 111.403H335.09C334.96 111.402 334.84 111.36 334.73 111.283C334.62 111.206 334.54 111.097 334.5 110.973C334.5 110.973 334.5 110.941 334.5 110.927C334.45 110.784 334.36 110.655 334.25 110.549C334.13 110.44 333.99 110.357 333.83 110.306C333.64 110.243 333.44 110.214 333.23 110.219C333.04 110.216 332.84 110.24 332.66 110.292C332.51 110.334 332.37 110.402 332.25 110.493C332.15 110.574 332.07 110.679 332.01 110.799C331.96 110.914 331.93 111.04 331.93 111.167C331.93 111.309 331.97 111.449 332.04 111.571C332.11 111.693 332.22 111.793 332.34 111.862C332.72 112.087 333.13 112.258 333.55 112.369C333.96 112.491 334.35 112.646 334.73 112.831C335.04 112.978 335.33 113.171 335.58 113.404C335.8 113.606 335.97 113.851 336.1 114.123C336.22 114.409 336.27 114.716 336.27 115.026C336.28 115.358 336.2 115.686 336.06 115.984C335.92 116.26 335.71 116.498 335.46 116.679C335.18 116.883 334.86 117.032 334.52 117.12C334.13 117.229 333.71 117.281 333.3 117.276C333.03 117.276 332.76 117.252 332.49 117.207C332.23 117.161 331.97 117.088 331.72 116.988C331.47 116.9 331.24 116.783 331.02 116.641C330.82 116.497 330.63 116.324 330.47 116.127C330.32 115.922 330.19 115.693 330.11 115.449V115.411C330.08 115.318 330.07 115.22 330.09 115.124C330.1 115.028 330.14 114.938 330.2 114.859C330.26 114.781 330.34 114.718 330.42 114.674C330.51 114.631 330.61 114.608 330.7 114.609H331.14C331.27 114.609 331.4 114.654 331.51 114.736C331.62 114.818 331.7 114.933 331.74 115.064C331.75 115.123 331.77 115.182 331.8 115.238C331.87 115.402 331.98 115.547 332.12 115.658C332.28 115.768 332.45 115.847 332.64 115.891C332.85 115.941 333.07 115.966 333.3 115.964C333.49 115.966 333.68 115.943 333.87 115.894C334.01 115.855 334.14 115.789 334.26 115.7C334.37 115.622 334.45 115.521 334.5 115.404C334.55 115.279 334.58 115.144 334.57 115.008Z" fill="#00A3FE"/>
<path d="M342.94 110.358H341.68C341.51 110.358 341.35 110.423 341.24 110.539C341.12 110.655 341.06 110.812 341.06 110.976V116.533C341.06 116.698 340.99 116.856 340.87 116.973C340.76 117.09 340.6 117.155 340.43 117.155H339.99C339.83 117.154 339.67 117.088 339.55 116.972C339.44 116.855 339.37 116.698 339.37 116.533V110.976C339.37 110.812 339.3 110.655 339.19 110.539C339.07 110.423 338.91 110.358 338.75 110.358H337.53C337.36 110.357 337.21 110.291 337.09 110.175C336.97 110.058 336.91 109.901 336.91 109.736V109.615C336.91 109.531 336.92 109.448 336.95 109.37C336.98 109.292 337.02 109.221 337.08 109.161C337.14 109.1 337.21 109.052 337.29 109.019C337.36 108.986 337.44 108.969 337.53 108.969H342.95C343.12 108.969 343.28 109.034 343.39 109.151C343.51 109.267 343.57 109.426 343.57 109.59V109.712C343.58 109.797 343.56 109.881 343.53 109.96C343.5 110.039 343.46 110.111 343.4 110.171C343.34 110.232 343.27 110.279 343.19 110.312C343.11 110.344 343.03 110.36 342.94 110.358Z" fill="#00A3FE"/>
<path d="M345.7 117.155H345.25C345.09 117.154 344.93 117.088 344.81 116.972C344.7 116.855 344.63 116.698 344.63 116.533V109.587C344.63 109.423 344.7 109.265 344.81 109.149C344.93 109.032 345.09 108.966 345.25 108.965H345.7C345.86 108.965 346.02 109.031 346.14 109.147C346.25 109.264 346.32 109.422 346.32 109.587V116.533C346.32 116.698 346.25 116.856 346.14 116.973C346.02 117.09 345.86 117.155 345.7 117.155Z" fill="#00A3FE"/>
<path d="M353.91 117.155H353.2C353.09 117.155 352.98 117.127 352.89 117.075C352.8 117.023 352.72 116.947 352.67 116.856L350.72 113.661C350.65 113.547 350.54 113.459 350.41 113.41C350.29 113.361 350.15 113.354 350.02 113.391C349.89 113.427 349.78 113.505 349.69 113.612C349.61 113.719 349.57 113.849 349.57 113.984V116.533C349.57 116.698 349.5 116.856 349.38 116.973C349.27 117.09 349.11 117.155 348.94 117.155H348.5C348.34 117.155 348.18 117.09 348.06 116.973C347.94 116.856 347.88 116.698 347.88 116.533V109.587C347.88 109.422 347.94 109.264 348.06 109.147C348.18 109.031 348.34 108.965 348.5 108.965H349.22C349.32 108.966 349.43 108.993 349.52 109.045C349.61 109.098 349.69 109.173 349.75 109.264L351.7 112.466C351.77 112.582 351.88 112.672 352 112.722C352.13 112.771 352.27 112.779 352.4 112.743C352.53 112.707 352.64 112.629 352.73 112.521C352.81 112.414 352.85 112.282 352.85 112.147V109.587C352.85 109.423 352.92 109.265 353.04 109.149C353.15 109.032 353.31 108.966 353.47 108.965H353.91C354.08 108.965 354.24 109.031 354.35 109.147C354.47 109.264 354.53 109.422 354.53 109.587V116.533C354.53 116.698 354.47 116.856 354.35 116.973C354.24 117.09 354.08 117.155 353.91 117.155Z" fill="#00A3FE"/>
<path d="M362.48 115.87C362.48 115.957 362.46 116.043 362.43 116.123C362.39 116.202 362.34 116.274 362.27 116.332C362.22 116.384 362.15 116.439 362.08 116.495C361.89 116.642 361.67 116.765 361.45 116.863C361.16 116.989 360.86 117.086 360.55 117.151C360.15 117.232 359.75 117.271 359.35 117.266C358.86 117.272 358.36 117.184 357.9 117.005C357.48 116.838 357.09 116.575 356.78 116.238C356.46 115.878 356.21 115.456 356.06 114.998C355.88 114.455 355.79 113.885 355.8 113.313V112.831C355.79 112.258 355.88 111.689 356.05 111.143C356.2 110.685 356.43 110.262 356.75 109.899C357.04 109.564 357.41 109.301 357.83 109.132C358.28 108.951 358.76 108.861 359.24 108.868C359.71 108.857 360.18 108.924 360.63 109.066C360.99 109.182 361.32 109.372 361.6 109.625C361.86 109.865 362.07 110.157 362.21 110.483C362.25 110.574 362.29 110.668 362.32 110.764C362.35 110.858 362.36 110.957 362.34 111.054C362.33 111.151 362.29 111.243 362.23 111.323C362.17 111.403 362.1 111.468 362.01 111.512C361.92 111.557 361.83 111.58 361.73 111.58H361.34C361.21 111.579 361.08 111.536 360.97 111.459C360.87 111.382 360.79 111.273 360.75 111.15L360.7 111.021C360.63 110.86 360.53 110.714 360.41 110.594C360.28 110.471 360.12 110.377 359.95 110.32C359.74 110.253 359.52 110.221 359.3 110.226C359.04 110.213 358.79 110.266 358.56 110.38C358.33 110.494 358.13 110.666 357.99 110.879C357.65 111.467 357.49 112.143 357.53 112.82V113.313C357.49 113.996 357.66 114.676 358.03 115.255C358.19 115.47 358.4 115.643 358.65 115.758C358.89 115.873 359.16 115.927 359.43 115.915C359.61 115.918 359.79 115.905 359.96 115.877C360.09 115.856 360.22 115.823 360.35 115.779C360.44 115.745 360.53 115.702 360.61 115.651C360.68 115.61 360.73 115.564 360.79 115.512V114.724C360.79 114.559 360.72 114.401 360.61 114.284C360.49 114.167 360.33 114.102 360.17 114.102H359.87C359.71 114.102 359.55 114.037 359.44 113.921C359.32 113.805 359.25 113.648 359.25 113.484C359.25 113.319 359.32 113.161 359.43 113.044C359.55 112.927 359.71 112.862 359.87 112.862H361.87C361.95 112.862 362.03 112.878 362.1 112.909C362.18 112.941 362.25 112.986 362.31 113.044C362.36 113.102 362.41 113.171 362.44 113.246C362.47 113.321 362.49 113.402 362.49 113.484L362.48 115.87Z" fill="#00A3FE"/>
</svg>