<svg width="48" height="48" viewBox="0 0 48 48" fill="none" xmlns="http://www.w3.org/2000/svg">
<path d="M13.8433 0.41625C11.4793 -0.13875 9.01926 -0.13875 6.65526 0.41625C3.55926 1.14225 1.14225 3.55926 0.41625 6.65526C-0.13875 9.01926 -0.13875 11.4793 0.41625 13.8433C1.14225 16.9393 3.55926 19.3572 6.65526 20.0832C9.01926 20.6372 11.4793 20.6372 13.8433 20.0832C16.9393 19.3572 19.3572 16.9393 20.0832 13.8433C20.6372 11.4793 20.6372 9.01926 20.0832 6.65526C19.3572 3.55926 16.9393 1.14225 13.8433 0.41625Z" fill="url(#paint0_linear_1_356)"/>
<path d="M13.8433 27.9172C11.4793 27.3632 9.01926 27.3632 6.65526 27.9172C3.55926 28.6432 1.14225 31.0612 0.41625 34.1572C-0.13875 36.5212 -0.13875 38.9812 0.41625 41.3452C1.14225 44.4412 3.55926 46.8582 6.65526 47.5842C9.01926 48.1392 11.4793 48.1392 13.8433 47.5842C16.9393 46.8582 19.3572 44.4412 20.0832 41.3452C20.6372 38.9812 20.6372 36.5212 20.0832 34.1572C19.3572 31.0612 16.9393 28.6432 13.8433 27.9172Z" fill="url(#paint1_linear_1_356)"/>
<path d="M41.3452 0.41625C38.9812 -0.13875 36.5212 -0.13875 34.1572 0.41625C31.0612 1.14225 28.6432 3.55926 27.9172 6.65526C27.3632 9.01926 27.3632 11.4793 27.9172 13.8433C28.6432 16.9393 31.0612 19.3572 34.1572 20.0832C36.5212 20.6372 38.9812 20.6372 41.3452 20.0832C44.4412 19.3572 46.8582 16.9393 47.5842 13.8433C48.1392 11.4793 48.1392 9.01926 47.5842 6.65526C46.8582 3.55926 44.4412 1.14225 41.3452 0.41625Z" fill="url(#paint2_linear_1_356)"/>
<path d="M41.3452 27.9172C38.9812 27.3632 36.5212 27.3632 34.1572 27.9172C31.0612 28.6432 28.6432 31.0612 27.9172 34.1572C27.3632 36.5212 27.3632 38.9812 27.9172 41.3452C28.6432 44.4412 31.0612 46.8582 34.1572 47.5842C36.5212 48.1392 38.9812 48.1392 41.3452 47.5842C44.4412 46.8582 46.8582 44.4412 47.5842 41.3452C48.1392 38.9812 48.1392 36.5212 47.5842 34.1572C46.8582 31.0612 44.4412 28.6432 41.3452 27.9172Z" fill="url(#paint3_linear_1_356)"/>
<defs>
<linearGradient id="paint0_linear_1_356" x1="0.000250767" y1="-0.22175" x2="29.2452" y2="57.3112" gradientUnits="userSpaceOnUse">
<stop stop-color="#09C6F9"/>
<stop offset="1" stop-color="#045DE9"/>
</linearGradient>
<linearGradient id="paint1_linear_1_356" x1="0.000250526" y1="-0.221781" x2="29.2452" y2="57.3112" gradientUnits="userSpaceOnUse">
<stop stop-color="#09C6F9"/>
<stop offset="1" stop-color="#045DE9"/>
</linearGradient>
<linearGradient id="paint2_linear_1_356" x1="0.000218617" y1="-0.22175" x2="29.2452" y2="57.3112" gradientUnits="userSpaceOnUse">
<stop stop-color="#09C6F9"/>
<stop offset="1" stop-color="#045DE9"/>
</linearGradient>
<linearGradient id="paint3_linear_1_356" x1="0.000218002" y1="-0.22178" x2="29.2452" y2="57.3112" gradientUnits="userSpaceOnUse">
<stop stop-color="#09C6F9"/>
<stop offset="1" stop-color="#045DE9"/>
</linearGradient>
</defs>
</svg>