<svg width="48" height="61" viewBox="0 0 48 61" fill="none" xmlns="http://www.w3.org/2000/svg">
<path fill-rule="evenodd" clip-rule="evenodd" d="M32.9203 44.4847L31.5222 44.7928V46.6517C31.5222 49.8387 29.5183 52.5497 26.7223 53.5547V58.5597C26.7223 59.9077 25.6473 60.9997 24.3223 60.9997C22.9963 60.9997 21.9213 59.9077 21.9213 58.5597V53.5547C19.1253 52.5497 17.1212 49.8387 17.1212 46.6517V44.9287C16.9132 44.8867 16.7042 44.8427 16.4962 44.7967L15.0803 44.4847C8.17029 42.9627 2.70225 37.5967 0.96225 30.6297C-0.32075 25.4957 -0.32075 20.1177 0.96225 14.9837C2.70225 8.01774 8.17029 2.65076 15.0803 1.12876L16.4962 0.81675C21.4412 -0.27225 26.5593 -0.27225 31.5043 0.81675L32.9203 1.12876C39.8303 2.65076 45.2983 8.01772 47.0383 14.9847C48.3213 20.1177 48.3213 25.4957 47.0383 30.6297C45.2983 37.5967 39.8303 42.9627 32.9203 44.4847ZM26.7223 45.5077C26.4433 45.5297 26.1653 45.5477 25.8863 45.5627C24.5653 45.6347 23.2423 45.6307 21.9213 45.5517V46.6517C21.9213 47.9987 22.9963 49.0917 24.3223 49.0917C25.6473 49.0917 26.7223 47.9987 26.7223 46.6517V45.5077ZM26.8013 13.1158C27.6293 13.7888 27.7643 15.0177 27.1013 15.8587L23.1963 20.8207H28.8023C29.5403 20.8207 30.2133 21.2507 30.5333 21.9277C30.8523 22.6037 30.7623 23.4067 30.3013 23.9927L23.9013 32.1257C23.2383 32.9677 22.0303 33.1038 21.2023 32.4308C20.3743 31.7568 20.2403 30.5287 20.9023 29.6867L24.8073 24.7247H19.2013C18.4633 24.7247 17.7903 24.2948 17.4713 23.6188C17.1513 22.9428 17.2413 22.1397 17.7023 21.5537L24.1023 13.4208C24.7653 12.5788 25.9733 12.4418 26.8013 13.1158Z" fill="url(#paint0_linear_1_336)"/>
<defs>
<linearGradient id="paint0_linear_1_336" x1="0.00024948" y1="-0.28225" x2="41.9362" y2="64.6348" gradientUnits="userSpaceOnUse">
<stop stop-color="#09C6F9"/>
<stop offset="1" stop-color="#045DE9"/>
</linearGradient>
</defs>
</svg>