<svg width="48" height="48" viewBox="0 0 48 48" fill="none" xmlns="http://www.w3.org/2000/svg">
<path fill-rule="evenodd" clip-rule="evenodd" d="M16.0792 0.91725C21.2892 -0.30575 26.7113 -0.30575 31.9213 0.91725C39.4443 2.68125 45.3193 8.55624 47.0833 16.0792C48.3063 21.2892 48.3063 26.7113 47.0833 31.9213C45.3193 39.4443 39.4443 45.3193 31.9213 47.0833C26.7113 48.3063 21.2892 48.3063 16.0792 47.0833C8.55624 45.3193 2.68125 39.4443 0.91725 31.9213C-0.30575 26.7113 -0.30575 21.2892 0.91725 16.0792C2.68125 8.55624 8.55624 2.68125 16.0792 0.91725ZM27.9733 18.7003C28.8073 18.3663 29.6343 19.1932 29.3013 20.0272L27.2202 25.2293C26.8572 26.1373 26.1373 26.8562 25.2293 27.2202L20.0272 29.3002C19.1942 29.6342 18.3663 28.8073 18.7003 27.9733L20.7813 22.7713C21.1443 21.8633 21.8632 21.1443 22.7722 20.7803L27.9733 18.7003ZM32.1453 21.1652C33.4793 17.8302 30.1703 14.5222 26.8363 15.8552L21.6342 17.9362C19.9472 18.6112 18.6112 19.9472 17.9362 21.6342L15.8563 26.8353C14.5223 30.1703 17.8312 33.4783 21.1652 32.1453L26.3673 30.0643C28.0533 29.3893 29.3903 28.0533 30.0643 26.3663L32.1453 21.1652Z" fill="url(#paint0_linear_1_338)"/>
<defs>
<linearGradient id="paint0_linear_1_338" x1="0.000250768" y1="-0.22175" x2="29.2453" y2="57.3113" gradientUnits= "userSpaceOnUse">
<stop stop-color="#09C6F9"/>
<stop offset="1" stop-color="#045DE9"/>
</linearGradient>
</defs>
</svg>